<mxfile host="app.diagrams.net" modified="2022-11-07T15:25:54.862Z" agent="5.0 (Windows NT 10.0; Win64; x64) AppleWebKit/537.36 (KHTML, like Gecko) Chrome/107.0.0.0 Safari/537.36" etag="Y77rT13WVY9LwvebWKqd" version="20.5.1" type="github" pages="2">
  <diagram id="xSAO6G4iO3-gwYTMsGWA" name="Page-1">
    <mxGraphModel dx="1169" dy="1047" grid="1" gridSize="10" guides="1" tooltips="1" connect="1" arrows="1" fold="1" page="1" pageScale="1" pageWidth="827" pageHeight="1169" math="0" shadow="0">
      <root>
        <mxCell id="0" />
        <mxCell id="1" parent="0" />
        <mxCell id="9YKvACEuCcV3Z44-jCWN-15" style="edgeStyle=orthogonalEdgeStyle;rounded=0;orthogonalLoop=1;jettySize=auto;html=1;entryX=0.5;entryY=0;entryDx=0;entryDy=0;" parent="1" source="9YKvACEuCcV3Z44-jCWN-1" target="9YKvACEuCcV3Z44-jCWN-2" edge="1">
          <mxGeometry relative="1" as="geometry" />
        </mxCell>
        <mxCell id="9YKvACEuCcV3Z44-jCWN-1" value="微信静默授权&lt;br&gt;获取UnionID" style="rounded=1;whiteSpace=wrap;html=1;fillColor=#E6FFCC;strokeColor=#82b366;" parent="1" vertex="1">
          <mxGeometry x="90" y="200" width="120" height="60" as="geometry" />
        </mxCell>
        <mxCell id="9YKvACEuCcV3Z44-jCWN-19" style="edgeStyle=orthogonalEdgeStyle;rounded=0;orthogonalLoop=1;jettySize=auto;html=1;entryX=0.095;entryY=-0.02;entryDx=0;entryDy=0;entryPerimeter=0;" parent="1" source="9YKvACEuCcV3Z44-jCWN-2" target="9YKvACEuCcV3Z44-jCWN-14" edge="1">
          <mxGeometry relative="1" as="geometry" />
        </mxCell>
        <mxCell id="9YKvACEuCcV3Z44-jCWN-20" value="&lt;font style=&quot;font-size: 11px;&quot;&gt;是&lt;/font&gt;" style="edgeLabel;html=1;align=center;verticalAlign=middle;resizable=0;points=[];" parent="9YKvACEuCcV3Z44-jCWN-19" vertex="1" connectable="0">
          <mxGeometry x="0.0503" y="2" relative="1" as="geometry">
            <mxPoint as="offset" />
          </mxGeometry>
        </mxCell>
        <mxCell id="9YKvACEuCcV3Z44-jCWN-21" style="edgeStyle=orthogonalEdgeStyle;rounded=0;orthogonalLoop=1;jettySize=auto;html=1;exitX=1;exitY=0.5;exitDx=0;exitDy=0;entryX=0;entryY=0.617;entryDx=0;entryDy=0;entryPerimeter=0;fontSize=11;dashed=1;" parent="1" source="9YKvACEuCcV3Z44-jCWN-2" target="9YKvACEuCcV3Z44-jCWN-3" edge="1">
          <mxGeometry relative="1" as="geometry">
            <Array as="points">
              <mxPoint x="270" y="350" />
              <mxPoint x="270" y="237" />
            </Array>
          </mxGeometry>
        </mxCell>
        <mxCell id="9YKvACEuCcV3Z44-jCWN-22" value="否" style="edgeLabel;html=1;align=center;verticalAlign=middle;resizable=0;points=[];fontSize=11;" parent="9YKvACEuCcV3Z44-jCWN-21" vertex="1" connectable="0">
          <mxGeometry x="-0.3004" y="2" relative="1" as="geometry">
            <mxPoint as="offset" />
          </mxGeometry>
        </mxCell>
        <mxCell id="9YKvACEuCcV3Z44-jCWN-2" value="UnionId 是否已经存在" style="rhombus;whiteSpace=wrap;html=1;fillColor=#E6FFCC;strokeColor=#82b366;" parent="1" vertex="1">
          <mxGeometry x="70" y="310" width="160" height="80" as="geometry" />
        </mxCell>
        <mxCell id="9YKvACEuCcV3Z44-jCWN-23" value="首次注册" style="edgeStyle=orthogonalEdgeStyle;rounded=0;orthogonalLoop=1;jettySize=auto;html=1;entryX=0.5;entryY=0;entryDx=0;entryDy=0;fontSize=11;" parent="1" source="9YKvACEuCcV3Z44-jCWN-3" target="9YKvACEuCcV3Z44-jCWN-4" edge="1">
          <mxGeometry relative="1" as="geometry">
            <Array as="points">
              <mxPoint x="483" y="290" />
              <mxPoint x="353" y="290" />
            </Array>
          </mxGeometry>
        </mxCell>
        <mxCell id="9YKvACEuCcV3Z44-jCWN-24" style="edgeStyle=orthogonalEdgeStyle;rounded=0;orthogonalLoop=1;jettySize=auto;html=1;fontSize=11;" parent="1" source="9YKvACEuCcV3Z44-jCWN-3" target="9YKvACEuCcV3Z44-jCWN-5" edge="1">
          <mxGeometry relative="1" as="geometry" />
        </mxCell>
        <mxCell id="9YKvACEuCcV3Z44-jCWN-26" style="edgeStyle=orthogonalEdgeStyle;rounded=0;orthogonalLoop=1;jettySize=auto;html=1;fontSize=11;" parent="1" source="9YKvACEuCcV3Z44-jCWN-3" target="9YKvACEuCcV3Z44-jCWN-25" edge="1">
          <mxGeometry relative="1" as="geometry">
            <Array as="points">
              <mxPoint x="483" y="290" />
              <mxPoint x="680" y="290" />
            </Array>
          </mxGeometry>
        </mxCell>
        <mxCell id="9YKvACEuCcV3Z44-jCWN-3" value="默认登录流程" style="rounded=1;whiteSpace=wrap;html=1;" parent="1" vertex="1">
          <mxGeometry x="400" y="200" width="166" height="60" as="geometry" />
        </mxCell>
        <mxCell id="9YKvACEuCcV3Z44-jCWN-27" style="edgeStyle=orthogonalEdgeStyle;rounded=0;orthogonalLoop=1;jettySize=auto;html=1;fontSize=11;" parent="1" source="9YKvACEuCcV3Z44-jCWN-4" target="9YKvACEuCcV3Z44-jCWN-6" edge="1">
          <mxGeometry relative="1" as="geometry" />
        </mxCell>
        <mxCell id="9YKvACEuCcV3Z44-jCWN-4" value="填写身份证号码" style="rounded=0;whiteSpace=wrap;html=1;" parent="1" vertex="1">
          <mxGeometry x="293" y="320" width="120" height="60" as="geometry" />
        </mxCell>
        <mxCell id="9YKvACEuCcV3Z44-jCWN-32" style="edgeStyle=orthogonalEdgeStyle;rounded=0;orthogonalLoop=1;jettySize=auto;html=1;entryX=0;entryY=0;entryDx=0;entryDy=0;fontSize=11;" parent="1" source="9YKvACEuCcV3Z44-jCWN-5" target="9YKvACEuCcV3Z44-jCWN-7" edge="1">
          <mxGeometry relative="1" as="geometry" />
        </mxCell>
        <mxCell id="9YKvACEuCcV3Z44-jCWN-5" value="填写手机号" style="rounded=0;whiteSpace=wrap;html=1;" parent="1" vertex="1">
          <mxGeometry x="466" y="320" width="120" height="60" as="geometry" />
        </mxCell>
        <mxCell id="9YKvACEuCcV3Z44-jCWN-28" style="edgeStyle=orthogonalEdgeStyle;rounded=0;orthogonalLoop=1;jettySize=auto;html=1;entryX=0.5;entryY=0;entryDx=0;entryDy=0;fontSize=11;" parent="1" source="9YKvACEuCcV3Z44-jCWN-6" target="9YKvACEuCcV3Z44-jCWN-9" edge="1">
          <mxGeometry relative="1" as="geometry" />
        </mxCell>
        <mxCell id="9YKvACEuCcV3Z44-jCWN-29" value="是" style="edgeLabel;html=1;align=center;verticalAlign=middle;resizable=0;points=[];fontSize=11;" parent="9YKvACEuCcV3Z44-jCWN-28" vertex="1" connectable="0">
          <mxGeometry x="-0.2292" relative="1" as="geometry">
            <mxPoint as="offset" />
          </mxGeometry>
        </mxCell>
        <mxCell id="9YKvACEuCcV3Z44-jCWN-6" value="用户是否存在" style="rhombus;whiteSpace=wrap;html=1;" parent="1" vertex="1">
          <mxGeometry x="273" y="420" width="160" height="70" as="geometry" />
        </mxCell>
        <mxCell id="9YKvACEuCcV3Z44-jCWN-31" value="是" style="edgeStyle=orthogonalEdgeStyle;rounded=0;orthogonalLoop=1;jettySize=auto;html=1;exitX=0;exitY=1;exitDx=0;exitDy=0;entryX=0.5;entryY=0;entryDx=0;entryDy=0;fontSize=11;" parent="1" source="9YKvACEuCcV3Z44-jCWN-7" target="9YKvACEuCcV3Z44-jCWN-10" edge="1">
          <mxGeometry relative="1" as="geometry" />
        </mxCell>
        <mxCell id="9YKvACEuCcV3Z44-jCWN-41" style="edgeStyle=orthogonalEdgeStyle;rounded=0;orthogonalLoop=1;jettySize=auto;html=1;exitX=1;exitY=1;exitDx=0;exitDy=0;entryX=0.905;entryY=-0.02;entryDx=0;entryDy=0;entryPerimeter=0;fontSize=11;" parent="1" source="9YKvACEuCcV3Z44-jCWN-7" target="9YKvACEuCcV3Z44-jCWN-14" edge="1">
          <mxGeometry relative="1" as="geometry" />
        </mxCell>
        <mxCell id="9YKvACEuCcV3Z44-jCWN-42" value="是" style="edgeLabel;html=1;align=center;verticalAlign=middle;resizable=0;points=[];fontSize=11;" parent="9YKvACEuCcV3Z44-jCWN-41" vertex="1" connectable="0">
          <mxGeometry x="0.1129" y="1" relative="1" as="geometry">
            <mxPoint as="offset" />
          </mxGeometry>
        </mxCell>
        <mxCell id="9YKvACEuCcV3Z44-jCWN-45" style="edgeStyle=orthogonalEdgeStyle;rounded=0;orthogonalLoop=1;jettySize=auto;html=1;entryX=1;entryY=0.5;entryDx=0;entryDy=0;fontSize=11;dashed=1;" parent="1" source="9YKvACEuCcV3Z44-jCWN-7" target="9YKvACEuCcV3Z44-jCWN-4" edge="1">
          <mxGeometry relative="1" as="geometry">
            <Array as="points">
              <mxPoint x="450" y="455" />
              <mxPoint x="450" y="350" />
            </Array>
          </mxGeometry>
        </mxCell>
        <mxCell id="9YKvACEuCcV3Z44-jCWN-46" value="否" style="edgeLabel;html=1;align=center;verticalAlign=middle;resizable=0;points=[];fontSize=11;" parent="9YKvACEuCcV3Z44-jCWN-45" vertex="1" connectable="0">
          <mxGeometry x="-0.3113" y="-3" relative="1" as="geometry">
            <mxPoint as="offset" />
          </mxGeometry>
        </mxCell>
        <mxCell id="9YKvACEuCcV3Z44-jCWN-7" value="用户是否已经注册" style="rhombus;whiteSpace=wrap;html=1;" parent="1" vertex="1">
          <mxGeometry x="459" y="420" width="267" height="70" as="geometry" />
        </mxCell>
        <mxCell id="9YKvACEuCcV3Z44-jCWN-35" style="edgeStyle=orthogonalEdgeStyle;rounded=0;orthogonalLoop=1;jettySize=auto;html=1;entryX=0.5;entryY=0;entryDx=0;entryDy=0;fontSize=11;" parent="1" source="9YKvACEuCcV3Z44-jCWN-9" target="9YKvACEuCcV3Z44-jCWN-11" edge="1">
          <mxGeometry relative="1" as="geometry">
            <Array as="points">
              <mxPoint x="353" y="640" />
              <mxPoint x="492" y="640" />
            </Array>
          </mxGeometry>
        </mxCell>
        <mxCell id="9YKvACEuCcV3Z44-jCWN-9" value="注册流程：&lt;br&gt;实名认证&lt;br&gt;绑定手机" style="rounded=0;whiteSpace=wrap;html=1;" parent="1" vertex="1">
          <mxGeometry x="292.5" y="530" width="120" height="80" as="geometry" />
        </mxCell>
        <mxCell id="9YKvACEuCcV3Z44-jCWN-34" style="edgeStyle=orthogonalEdgeStyle;rounded=0;orthogonalLoop=1;jettySize=auto;html=1;fontSize=11;" parent="1" source="9YKvACEuCcV3Z44-jCWN-10" target="9YKvACEuCcV3Z44-jCWN-11" edge="1">
          <mxGeometry relative="1" as="geometry" />
        </mxCell>
        <mxCell id="9YKvACEuCcV3Z44-jCWN-10" value="输入短信验证码 / 密码" style="rounded=0;whiteSpace=wrap;html=1;" parent="1" vertex="1">
          <mxGeometry x="455" y="530" width="140" height="80" as="geometry" />
        </mxCell>
        <mxCell id="9YKvACEuCcV3Z44-jCWN-36" value="是" style="edgeStyle=orthogonalEdgeStyle;rounded=0;orthogonalLoop=1;jettySize=auto;html=1;entryX=1;entryY=0.5;entryDx=0;entryDy=0;fontSize=11;" parent="1" source="9YKvACEuCcV3Z44-jCWN-11" target="9YKvACEuCcV3Z44-jCWN-12" edge="1">
          <mxGeometry relative="1" as="geometry">
            <Array as="points">
              <mxPoint x="420" y="705" />
              <mxPoint x="420" y="705" />
            </Array>
          </mxGeometry>
        </mxCell>
        <mxCell id="9YKvACEuCcV3Z44-jCWN-39" style="edgeStyle=orthogonalEdgeStyle;rounded=0;orthogonalLoop=1;jettySize=auto;html=1;entryX=0.637;entryY=-0.02;entryDx=0;entryDy=0;entryPerimeter=0;fontSize=11;" parent="1" source="9YKvACEuCcV3Z44-jCWN-11" target="9YKvACEuCcV3Z44-jCWN-14" edge="1">
          <mxGeometry relative="1" as="geometry" />
        </mxCell>
        <mxCell id="9YKvACEuCcV3Z44-jCWN-40" value="否" style="edgeLabel;html=1;align=center;verticalAlign=middle;resizable=0;points=[];fontSize=11;" parent="9YKvACEuCcV3Z44-jCWN-39" vertex="1" connectable="0">
          <mxGeometry x="-0.1444" y="-1" relative="1" as="geometry">
            <mxPoint y="1" as="offset" />
          </mxGeometry>
        </mxCell>
        <mxCell id="9YKvACEuCcV3Z44-jCWN-11" value="是否为微信生态" style="rhombus;whiteSpace=wrap;html=1;fillColor=#E6FFCC;strokeColor=#82b366;" parent="1" vertex="1">
          <mxGeometry x="412" y="670" width="160" height="70" as="geometry" />
        </mxCell>
        <mxCell id="9YKvACEuCcV3Z44-jCWN-37" style="edgeStyle=orthogonalEdgeStyle;rounded=0;orthogonalLoop=1;jettySize=auto;html=1;entryX=0.5;entryY=0;entryDx=0;entryDy=0;fontSize=11;" parent="1" source="9YKvACEuCcV3Z44-jCWN-12" target="9YKvACEuCcV3Z44-jCWN-13" edge="1">
          <mxGeometry relative="1" as="geometry" />
        </mxCell>
        <mxCell id="9YKvACEuCcV3Z44-jCWN-12" value="获取绑定&lt;br&gt;UnionID" style="rounded=0;whiteSpace=wrap;html=1;fillColor=#E6FFCC;strokeColor=#82b366;" parent="1" vertex="1">
          <mxGeometry x="230" y="672.5" width="140" height="65" as="geometry" />
        </mxCell>
        <mxCell id="9YKvACEuCcV3Z44-jCWN-38" value="否" style="edgeStyle=orthogonalEdgeStyle;rounded=0;orthogonalLoop=1;jettySize=auto;html=1;entryX=0.332;entryY=0.02;entryDx=0;entryDy=0;entryPerimeter=0;fontSize=11;" parent="1" source="9YKvACEuCcV3Z44-jCWN-13" target="9YKvACEuCcV3Z44-jCWN-14" edge="1">
          <mxGeometry relative="1" as="geometry" />
        </mxCell>
        <mxCell id="9YKvACEuCcV3Z44-jCWN-13" value="账号已存在 UnionID&lt;br&gt;且与此次获取的不同" style="rhombus;whiteSpace=wrap;html=1;fillColor=#E6FFCC;strokeColor=#82b366;" parent="1" vertex="1">
          <mxGeometry x="187.5" y="760" width="225" height="80" as="geometry" />
        </mxCell>
        <mxCell id="9YKvACEuCcV3Z44-jCWN-14" value="登录成功" style="rounded=1;whiteSpace=wrap;html=1;" parent="1" vertex="1">
          <mxGeometry x="90" y="910" width="630" height="50" as="geometry" />
        </mxCell>
        <mxCell id="9YKvACEuCcV3Z44-jCWN-33" style="edgeStyle=orthogonalEdgeStyle;rounded=0;orthogonalLoop=1;jettySize=auto;html=1;entryX=1;entryY=0;entryDx=0;entryDy=0;fontSize=11;" parent="1" source="9YKvACEuCcV3Z44-jCWN-25" target="9YKvACEuCcV3Z44-jCWN-7" edge="1">
          <mxGeometry relative="1" as="geometry" />
        </mxCell>
        <mxCell id="9YKvACEuCcV3Z44-jCWN-25" value="一键获取手机号" style="rounded=0;whiteSpace=wrap;html=1;fillColor=#E6FFCC;strokeColor=#82b366;" parent="1" vertex="1">
          <mxGeometry x="620" y="320" width="120" height="60" as="geometry" />
        </mxCell>
        <mxCell id="9YKvACEuCcV3Z44-jCWN-43" value="微信生态" style="text;html=1;strokeColor=none;fillColor=none;align=center;verticalAlign=middle;whiteSpace=wrap;rounded=0;fontSize=11;" parent="1" vertex="1">
          <mxGeometry x="120" y="140" width="60" height="30" as="geometry" />
        </mxCell>
        <mxCell id="9YKvACEuCcV3Z44-jCWN-44" value="主流程&amp;nbsp; App开始" style="text;html=1;strokeColor=none;fillColor=none;align=center;verticalAlign=middle;whiteSpace=wrap;rounded=0;fontSize=11;" parent="1" vertex="1">
          <mxGeometry x="429.5" y="140" width="107" height="30" as="geometry" />
        </mxCell>
      </root>
    </mxGraphModel>
  </diagram>
  <diagram id="IcHzjVKqInmt69LP276s" name="Page-2">
    <mxGraphModel dx="1169" dy="1047" grid="1" gridSize="10" guides="1" tooltips="1" connect="1" arrows="1" fold="1" page="1" pageScale="1" pageWidth="827" pageHeight="1169" math="0" shadow="0">
      <root>
        <mxCell id="0" />
        <mxCell id="1" parent="0" />
        <mxCell id="1DR0wzWXrbcCofm-jzrj-9" style="edgeStyle=orthogonalEdgeStyle;rounded=0;orthogonalLoop=1;jettySize=auto;html=1;entryX=0.5;entryY=0;entryDx=0;entryDy=0;" edge="1" parent="1" source="1DR0wzWXrbcCofm-jzrj-1" target="1DR0wzWXrbcCofm-jzrj-2">
          <mxGeometry relative="1" as="geometry" />
        </mxCell>
        <mxCell id="1DR0wzWXrbcCofm-jzrj-1" value="瀚银通统一支付页" style="rounded=1;whiteSpace=wrap;html=1;" vertex="1" parent="1">
          <mxGeometry x="319" y="70" width="190" height="60" as="geometry" />
        </mxCell>
        <mxCell id="1DR0wzWXrbcCofm-jzrj-10" style="edgeStyle=orthogonalEdgeStyle;rounded=0;orthogonalLoop=1;jettySize=auto;html=1;" edge="1" parent="1" source="1DR0wzWXrbcCofm-jzrj-2" target="1DR0wzWXrbcCofm-jzrj-3">
          <mxGeometry relative="1" as="geometry" />
        </mxCell>
        <mxCell id="1DR0wzWXrbcCofm-jzrj-2" value="输入支付密码" style="rounded=0;whiteSpace=wrap;html=1;" vertex="1" parent="1">
          <mxGeometry x="354" y="177" width="120" height="30" as="geometry" />
        </mxCell>
        <mxCell id="1DR0wzWXrbcCofm-jzrj-12" style="edgeStyle=orthogonalEdgeStyle;rounded=0;orthogonalLoop=1;jettySize=auto;html=1;" edge="1" parent="1" source="1DR0wzWXrbcCofm-jzrj-3" target="1DR0wzWXrbcCofm-jzrj-7">
          <mxGeometry relative="1" as="geometry">
            <mxPoint x="220" y="715" as="targetPoint" />
            <Array as="points">
              <mxPoint x="217" y="275" />
            </Array>
          </mxGeometry>
        </mxCell>
        <mxCell id="1DR0wzWXrbcCofm-jzrj-15" value="否" style="edgeLabel;html=1;align=center;verticalAlign=middle;resizable=0;points=[];" vertex="1" connectable="0" parent="1DR0wzWXrbcCofm-jzrj-12">
          <mxGeometry x="-0.8605" y="3" relative="1" as="geometry">
            <mxPoint as="offset" />
          </mxGeometry>
        </mxCell>
        <mxCell id="1DR0wzWXrbcCofm-jzrj-13" value="是" style="edgeStyle=orthogonalEdgeStyle;rounded=0;orthogonalLoop=1;jettySize=auto;html=1;entryX=0.5;entryY=0;entryDx=0;entryDy=0;" edge="1" parent="1" source="1DR0wzWXrbcCofm-jzrj-3" target="1DR0wzWXrbcCofm-jzrj-4">
          <mxGeometry relative="1" as="geometry" />
        </mxCell>
        <mxCell id="1DR0wzWXrbcCofm-jzrj-3" value="是否有现金支付部分" style="rhombus;whiteSpace=wrap;html=1;" vertex="1" parent="1">
          <mxGeometry x="329" y="240" width="170" height="70" as="geometry" />
        </mxCell>
        <mxCell id="1DR0wzWXrbcCofm-jzrj-16" style="edgeStyle=orthogonalEdgeStyle;rounded=0;orthogonalLoop=1;jettySize=auto;html=1;entryX=0;entryY=0.5;entryDx=0;entryDy=0;startArrow=classic;startFill=1;" edge="1" parent="1" source="1DR0wzWXrbcCofm-jzrj-4" target="1DR0wzWXrbcCofm-jzrj-5">
          <mxGeometry relative="1" as="geometry" />
        </mxCell>
        <mxCell id="1DR0wzWXrbcCofm-jzrj-17" style="edgeStyle=orthogonalEdgeStyle;rounded=0;orthogonalLoop=1;jettySize=auto;html=1;entryX=0.5;entryY=0;entryDx=0;entryDy=0;startArrow=none;startFill=0;" edge="1" parent="1" source="1DR0wzWXrbcCofm-jzrj-4" target="1DR0wzWXrbcCofm-jzrj-6">
          <mxGeometry relative="1" as="geometry" />
        </mxCell>
        <mxCell id="1DR0wzWXrbcCofm-jzrj-4" value="支付中间跳转页" style="rounded=0;whiteSpace=wrap;html=1;" vertex="1" parent="1">
          <mxGeometry x="336" y="360" width="156" height="50" as="geometry" />
        </mxCell>
        <mxCell id="1DR0wzWXrbcCofm-jzrj-5" value="第三方支付" style="rounded=0;whiteSpace=wrap;html=1;" vertex="1" parent="1">
          <mxGeometry x="580" y="360" width="156" height="50" as="geometry" />
        </mxCell>
        <mxCell id="1DR0wzWXrbcCofm-jzrj-22" value="否" style="edgeStyle=orthogonalEdgeStyle;rounded=0;orthogonalLoop=1;jettySize=auto;html=1;entryX=0;entryY=0.5;entryDx=0;entryDy=0;startArrow=none;startFill=0;" edge="1" parent="1" source="1DR0wzWXrbcCofm-jzrj-6" target="1DR0wzWXrbcCofm-jzrj-20">
          <mxGeometry relative="1" as="geometry" />
        </mxCell>
        <mxCell id="1DR0wzWXrbcCofm-jzrj-23" value="是" style="edgeStyle=orthogonalEdgeStyle;rounded=0;orthogonalLoop=1;jettySize=auto;html=1;entryX=0.5;entryY=0;entryDx=0;entryDy=0;startArrow=none;startFill=0;" edge="1" parent="1" source="1DR0wzWXrbcCofm-jzrj-6" target="1DR0wzWXrbcCofm-jzrj-8">
          <mxGeometry relative="1" as="geometry" />
        </mxCell>
        <mxCell id="1DR0wzWXrbcCofm-jzrj-6" value="查询是否完成第三方支付" style="rhombus;whiteSpace=wrap;html=1;" vertex="1" parent="1">
          <mxGeometry x="313.5" y="440" width="201" height="90" as="geometry" />
        </mxCell>
        <mxCell id="1DR0wzWXrbcCofm-jzrj-7" value="支付成功" style="rounded=1;whiteSpace=wrap;html=1;" vertex="1" parent="1">
          <mxGeometry x="130" y="710" width="350" height="60" as="geometry" />
        </mxCell>
        <mxCell id="1DR0wzWXrbcCofm-jzrj-24" style="edgeStyle=orthogonalEdgeStyle;rounded=0;orthogonalLoop=1;jettySize=auto;html=1;startArrow=none;startFill=0;entryX=0.809;entryY=-0.017;entryDx=0;entryDy=0;entryPerimeter=0;" edge="1" parent="1" source="1DR0wzWXrbcCofm-jzrj-8" target="1DR0wzWXrbcCofm-jzrj-7">
          <mxGeometry relative="1" as="geometry">
            <mxPoint x="400" y="740" as="targetPoint" />
          </mxGeometry>
        </mxCell>
        <mxCell id="1DR0wzWXrbcCofm-jzrj-26" value="是" style="edgeLabel;html=1;align=center;verticalAlign=middle;resizable=0;points=[];" vertex="1" connectable="0" parent="1DR0wzWXrbcCofm-jzrj-24">
          <mxGeometry x="-0.2183" y="-2" relative="1" as="geometry">
            <mxPoint as="offset" />
          </mxGeometry>
        </mxCell>
        <mxCell id="1DR0wzWXrbcCofm-jzrj-27" style="edgeStyle=orthogonalEdgeStyle;rounded=0;orthogonalLoop=1;jettySize=auto;html=1;startArrow=none;startFill=0;" edge="1" parent="1" source="1DR0wzWXrbcCofm-jzrj-8" target="1DR0wzWXrbcCofm-jzrj-25">
          <mxGeometry relative="1" as="geometry" />
        </mxCell>
        <mxCell id="1DR0wzWXrbcCofm-jzrj-28" value="否" style="edgeLabel;html=1;align=center;verticalAlign=middle;resizable=0;points=[];" vertex="1" connectable="0" parent="1DR0wzWXrbcCofm-jzrj-27">
          <mxGeometry x="-0.5117" y="4" relative="1" as="geometry">
            <mxPoint x="1" as="offset" />
          </mxGeometry>
        </mxCell>
        <mxCell id="1DR0wzWXrbcCofm-jzrj-8" value="瀚银通余额扣款是否成功" style="rhombus;whiteSpace=wrap;html=1;" vertex="1" parent="1">
          <mxGeometry x="313.5" y="570" width="201" height="80" as="geometry" />
        </mxCell>
        <mxCell id="1DR0wzWXrbcCofm-jzrj-20" value="弹窗提示" style="text;html=1;strokeColor=none;fillColor=none;align=center;verticalAlign=middle;whiteSpace=wrap;rounded=0;" vertex="1" parent="1">
          <mxGeometry x="580" y="470" width="60" height="30" as="geometry" />
        </mxCell>
        <mxCell id="1DR0wzWXrbcCofm-jzrj-25" value="支付失败" style="rounded=1;whiteSpace=wrap;html=1;" vertex="1" parent="1">
          <mxGeometry x="524.5" y="710" width="171" height="60" as="geometry" />
        </mxCell>
        <mxCell id="1DR0wzWXrbcCofm-jzrj-29" value="发起支付流程" style="text;html=1;strokeColor=none;fillColor=none;align=center;verticalAlign=middle;whiteSpace=wrap;rounded=0;" vertex="1" parent="1">
          <mxGeometry x="343" y="30" width="156" height="30" as="geometry" />
        </mxCell>
      </root>
    </mxGraphModel>
  </diagram>
</mxfile>
